inDegrees=yes
name=ik_OwnShooting_orientations2.mot
DataType=double
version=3
OpenSimVersion=4.3-2021-08-27-4bc7ad9
endheader
time	pelvis_tilt	pelvis_list	pelvis_rotation	pelvis_tx	pelvis_ty	pelvis_tz	hip_flexion_r	hip_adduction_r	hip_rotation_r	knee_angle_r	knee_angle_r_beta	ankle_angle_r	subtalar_angle_r	mtp_angle_r	hip_flexion_l	hip_adduction_l	hip_rotation_l	knee_angle_l	knee_angle_l_beta	ankle_angle_l	subtalar_angle_l	mtp_angle_l	lumbar_extension	lumbar_bending	lumbar_rotation	arm_flex_r	arm_add_r	arm_rot_r	elbow_flex_r	pro_sup_r	wrist_flex_r	wrist_dev_r	arm_flex_l	arm_add_l	arm_rot_l	elbow_flex_l	pro_sup_l	wrist_flex_l	wrist_dev_l
3.64	3.596375798194838	2.297209082562584	61.86536558021147	0	0.9399999999999999	0	44.98936791637544	-10.00000003127013	0	59.99659794373205	1.047138174113384	-4.999999850764279	0	0	44.98936791637544	-10.00000003127013	0	59.99659794373205	1.047138174113384	-4.999999850764279	0	0	-3.598467318772987	0.3237670912190521	-0.1541281294112753	28.46549690992042	13.99929639965218	72.69463087168802	149.9962197464653	45.00000140158374	0	0	0	-14.75748162937608	0	75.01173979697784	45.00000140158374	0	0
3.65	3.603279714521167	2.307962104276189	61.89173942462511	0	0.9399999999999999	0	44.98937154824724	-10.00000003121915	0	59.99659889317186	1.047138190684235	-4.999999850764718	0	0	44.98937154824724	-10.00000003121915	0	59.99659889317186	1.047138190684235	-4.999999850764718	0	0	-3.598005138643355	0.3241384335559369	-0.1816554173419656	29.87507316921549	14.28336425580194	71.93239174015287	149.996393349406	45.00000140050111	0	0	0	-14.75752402699061	0	75.01173584684692	45.00000140050111	0	0
3.66	3.619925265206441	2.30941738911638	61.90616746125394	0	0.9399999999999999	0	44.98943490514706	-10.00000003021247	0	59.99661516416288	1.0471384746666	-4.999999850773611	0	0	44.98943490514706	-10.00000003021247	0	59.99661516416288	1.0471384746666	-4.999999850773611	0	0	-3.611456166472264	0.3387865335078371	-0.1879107413413582	30.52105955236782	14.71050723941401	70.79099946975661	149.9964996152669	45.00000137958408	0	0	0	-14.75822040219484	0	75.0116669380451	45.00000137958408	0	0
3.67	3.645388071904437	2.330188152925721	61.89202773346359	0	0.9399999999999999	0	44.98951311771506	-10.00000002914778	0	59.99663609780884	1.047138840027647	-4.999999850782644	0	0	44.98951311771506	-10.00000002914778	0	59.99663609780884	1.047138840027647	-4.999999850782644	0	0	-3.651022266173804	0.3403474628563855	-0.146962230323153	28.20880065058598	14.2956165400757	72.38922535549838	149.9962322705665	45.00000135671293	0	0	0	-14.75913528010859	0	75.01158187174715	45.00000135671293	0	0
3.68	3.666734122456126	2.358067534219016	61.90008405351762	0	0.9399999999999999	0	44.98955875981126	-10.00000002822235	0	59.99664551338329	1.047139004360422	-4.999999850790911	0	0	44.98955875981126	-10.00000002822235	0	59.99664551338329	1.047139004360422	-4.999999850790911	0	0	-3.677587014321802	0.3300792192606687	-0.1472407836647898	28.5600498325798	14.44719918889918	73.68610873133248	149.9962716910953	45.00000133790556	0	0	0	-14.75952232591825	0	75.01153223015278	45.00000133790556	0	0
3.69	3.658808746549554	2.360207890665682	61.92981531941527	0	0.9399999999999999	0	44.98956067288974	-10.00000002819709	0	59.99664601802661	1.04713901316811	-4.999999850791131	0	0	44.98956067288974	-10.00000002819709	0	59.99664601802661	1.04713901316811	-4.999999850791131	0	0	-3.629402061847153	0.331108526192416	-0.2170534725859425	28.69755795655652	14.52981317022818	73.46212034286026	149.9962958561151	45.00000133735946	0	0	0	-14.75954494625877	0	75.01153014943199	45.00000133735946	0	0
3.7	3.696132407921131	2.394791362631943	61.90993322543892	0	0.9399999999999999	0	44.98963086939951	-10.0000000272115	0	59.99666473751797	1.047139339884868	-4.999999850799526	0	0	44.98963086939951	-10.0000000272115	0	59.99666473751797	1.047139339884868	-4.999999850799526	0	0	-3.690190710800898	0.3514066868621972	-0.1518959536141482	29.4153293602363	14.85407853865302	72.02333830610664	149.9964068637673	45.00000131629412	0	0	0	-14.76035498528866	0	75.01145380164398	45.00000131629412	0	0
3.71	3.718874522537978	2.409920952893597	61.91019237296399	0	0.9399999999999999	0	44.9897179541629	-10.00000002605627	0	59.99668658026572	1.047139721112734	-4.999999850809022	0	0	44.9897179541629	-10.00000002605627	0	59.99668658026572	1.047139721112734	-4.999999850809022	0	0	-3.705376515225965	0.3630638822933114	-0.1462853160986423	30.03729140747876	15.09127589619649	73.87164318969116	149.9964756357384	45.00000129100496	0	0	0	-14.76133460772944	0	75.01135908570168	45.00000129100496	0	0
3.72	3.727926370717082	2.390898417751047	61.95315380476541	0	0.9399999999999999	0	44.98972024350378	-10.00000002602715	0	59.99668718469627	1.047139731662037	-4.999999850809266	0	0	44.98972024350378	-10.00000002602715	0	59.99668718469627	1.047139731662037	-4.999999850809266	0	0	-3.660085662445167	0.3857437639123942	-0.2015144732429498	30.55456824936044	15.54713314108259	73.50060973655631	149.9965686860887	45.00000129036845	0	1.830095352711309e-35	0	-14.76136183739559	0	75.01135659574661	45.00000129036845	0	1.830095352711309e-35
3.73	3.739240328029354	2.407234744551079	61.96456688165019	0	0.9399999999999999	0	44.98972275889497	-10.00000002599513	0	59.99668784795904	1.047139743238156	-4.999999850809536	0	0	44.98972275889497	-10.00000002599513	0	59.99668784795904	1.047139743238156	-4.999999850809536	0	0	-3.67948968158802	0.3921923990417348	-0.2065251334877407	30.7278677114286	15.94102533947601	72.6733531924087	149.9966261046362	45.00000128966846	0	0	0	-14.76139173085908	0	75.01135385993253	45.00000128966846	0	0
3.74	3.758629705644437	2.442886318399387	61.93616838929648	0	0.9399999999999999	0	44.9897871614077	-10.00000002512257	0	59.99670362674072	1.047140018629849	-4.999999850816688	0	0	44.9897871614077	-10.00000002512257	0	59.99670362674072	1.047140018629849	-4.999999850816688	0	0	-3.739697691732724	0.372537361899208	-0.1597669239644308	30.48579692172624	15.93189023008745	74.88426350687796	149.9965902469127	45.00000127056988	0	0	0	-14.7620979063889	0	75.01128381388186	45.00000127056988	0	0
3.75	3.77069608568828	2.434852898057319	61.96486441352481	0	0.9399999999999999	0	44.9897903075475	-10.00000002508317	0	59.99670445667954	1.047140033115014	-4.999999850817012	0	0	44.9897903075475	-10.00000002508317	0	59.99670445667954	1.047140033115014	-4.999999850817012	0	0	-3.722674103151736	0.381928194284774	-0.2100061278545653	32.36463407870274	16.76038793857418	75.15010839187286	149.9968039926026	45.00000126970441	0	0	0	-14.7621353895928	0	75.0112803920467	45.00000126970441	0	0
3.76	3.774750927214998	2.448016001199645	61.97113207950549	0	0.9399999999999999	0	44.98984750865193	-10.00000002429245	0	59.99671949635822	1.047140295606925	-4.999999850823641	0	0	44.98984750865193	-10.00000002429245	0	59.99671949635822	1.047140295606925	-4.999999850823641	0	0	-3.716809582908595	0.3967589896533412	-0.2132726424863357	32.47822294297094	17.00924286955458	74.08931756236511	149.9968432092837	45.00000125264359	0	0	0	-14.76278742562493	0	75.01121817844719	45.00000125264359	0	0
3.77	3.810792874987003	2.480445896974919	61.96998223189015	0	0.9399999999999999	0	44.98990921781349	-10.00000002355724	0	59.99673523594062	1.047140570314461	-4.999999850829464	0	0	44.98990921781349	-10.00000002355724	0	59.99673523594062	1.047140570314461	-4.999999850829464	0	0	-3.810036526612644	0.3891888527920362	-0.1745925977520427	32.64541598458692	16.56908879437714	77.00073214409103	149.9967974448111	45.0000012360961	0	0	0	-14.76350316481951	0	75.01115106173634	45.0000012360961	0	0
3.78	3.818694102420223	2.488172542883763	61.98385059723989	0	0.9399999999999999	0	44.98991198642018	-10.00000002352365	0	59.99673596827505	1.047140583096108	-4.999999850829737	0	0	44.98991198642018	-10.00000002352365	0	59.99673596827505	1.047140583096108	-4.999999850829737	0	0	-3.793573382416942	0.3849486157506505	-0.1803426524921956	33.32729269264944	16.92527752517833	77.787477690438	149.9968701234791	45.00000123535138	0	0	0	-14.76353635006186	0	75.01114805051729	45.00000123535138	0	0
3.79	3.836623716595483	2.503806349757745	61.9923505893311	0	0.9399999999999999	0	44.98998471750777	-10.00000002261524	0	59.99675526459843	1.047140919880484	-4.999999850837121	0	0	44.98998471750777	-10.00000002261524	0	59.99675526459843	1.047140919880484	-4.999999850837121	0	0	-3.827715177775719	0.3996161013471791	-0.1865412325450803	32.68409235589059	17.0320291933684	77.20243071552378	149.9968403823083	45.00000121527669	0	0	0	-14.76439322556802	0	75.01106894603092	45.00000121527669	0	0
3.8	3.874587768310863	2.531987258763063	62.01346442145169	0	0.9399999999999999	0	44.99001758478092	-10.00000002216516	0	59.99676377491986	1.047141068413614	-4.99999985084083	0	0	44.99001758478092	-10.00000002216516	0	59.99676377491986	1.047141068413614	-4.99999985084083	0	0	-3.847361842140759	0.4245548417929289	-0.1950864369944575	30.45430410347844	16.07657124011721	79.99252683987302	149.9965717184056	45.00000120547854	0	0	0	-14.7647612204377	0	75.01103319862362	45.00000120547854	0	0
3.81	3.864016040356054	2.52636665151133	62.02050042878712	0	0.9399999999999999	0	44.99001955466861	-10.00000002214202	0	59.99676429834606	1.047141077549124	-4.999999850841018	0	0	44.99001955466861	-10.00000002214202	0	59.99676429834606	1.047141077549124	-4.999999850841018	0	0	-3.785046379318696	0.4146077469657025	-0.1930363907558729	30.81716111203633	16.41256021811387	80.41370589321994	149.9966330044053	45.0000012049607	0	0	0	-14.76478499746804	0	75.01103105611496	45.0000012049607	0	0
3.82	3.903051848589424	2.545831462927263	62.01724525663237	0	0.9399999999999999	0	44.99010827066248	-10.00000002113484	0	59.99678861663891	1.047141501983403	-4.999999850848987	0	0	44.99010827066248	-10.00000002113484	0	59.99678861663891	1.047141501983403	-4.999999850848987	0	0	-3.815014992206953	0.4470252358824549	-0.1767197132319252	30.80246027296962	17.25161772513732	79.14983591136323	149.9967204753769	45.00000118222934	0	0	0	-14.76587117496941	0	75.01093456594269	45.00000118222934	0	0
3.83	3.92114624835701	2.574245948248077	62.04204194869458	0	0.9399999999999999	0	44.99018485092486	-10.00000002031491	0	59.99680977587815	1.047141871281795	-4.999999850855336	0	0	44.99018485092486	-10.00000002031491	0	59.99680977587815	1.047141871281795	-4.999999850855336	0	0	-3.853789794416485	0.4419145674907327	-0.1990773707806113	27.55547256233199	15.95112887053774	80.89952715715587	149.9963106288662	45.00000116341799	0	0	0	-14.7668189031338	0	75.01085127494643	45.00000116341799	0	0
